<svg width="512" height="512" viewBox="0 0 512 512" style="color:currentColor" xmlns="http://www.w3.org/2000/svg" class="h-full w-full"><rect width="512" height="512" x="0" y="0" rx="30" fill="transparent" stroke="transparent" stroke-width="0" stroke-opacity="100%" paint-order="stroke"></rect><svg width="256px" height="256px" viewBox="0 0 48 48" fill="currentColor" x="128" y="128" role="img" style="display:inline-block;vertical-align:middle" xmlns="http://www.w3.org/2000/svg"><g fill="currentColor"><path fill="#3F51B5" d="m17.8 18.1l-7.4 7.3l-4.2-4.1L4 23.5l6.4 6.4l9.6-9.6zm0-13l-7.4 7.3l-4.2-4.1L4 10.5l6.4 6.4L20 7.3zm0 26l-7.4 7.3l-4.2-4.1L4 36.5l6.4 6.4l9.6-9.6z"/><path fill="#90CAF9" d="M24 22h20v4H24zm0-13h20v4H24zm0 26h20v4H24z"/></g></svg></svg>